<svg width="18" height="22" viewBox="0 0 18 22" fill="none" xmlns="http://www.w3.org/2000/svg">
<path d="M2.47616 8.8662L5.60901 4.62749C7.63405 1.88759 8.64661 0.517646 9.59133 0.80714C10.536 1.09664 10.536 2.77688 10.536 6.13736V6.45422C10.536 7.66626 10.536 8.27229 10.9233 8.65242L10.9438 8.67212C11.3394 9.04426 11.9701 9.04426 13.2316 9.04426C15.5017 9.04426 16.6369 9.04426 17.0204 9.7327C17.0268 9.74405 17.0329 9.75561 17.0389 9.76718C17.4011 10.4664 16.7439 11.3555 15.4294 13.1339L12.2966 17.3725C10.2715 20.1124 9.25893 21.4824 8.3142 21.1929C7.36958 20.9033 7.36958 19.2231 7.36958 15.8626L7.36968 15.5459C7.36968 14.3338 7.36968 13.7278 6.98234 13.3476L6.96188 13.3279C6.56625 12.9559 5.9355 12.9559 4.67399 12.9559C2.40388 12.9559 1.26882 12.9559 0.885216 12.2673C0.878863 12.256 0.872683 12.2445 0.866688 12.2328C0.504564 11.5338 1.16176 10.6446 2.47616 8.8662Z" stroke="white" stroke-opacity="0.8" stroke-width="1.5"/>
</svg>
