<svg width="13" height="13" viewBox="0 0 13 13" fill="none" xmlns="http://www.w3.org/2000/svg">
<path d="M12.0714 0C12.5647 0 13 0.435268 13 0.957589V12.0714C13 12.5938 12.5647 13 12.0714 13H0.899554C0.40625 13 0 12.5938 0 12.0714V0.957589C0 0.435268 0.40625 0 0.899554 0H12.0714ZM3.91741 11.1429V4.96205H2.00223V11.1429H3.91741ZM2.95982 4.09152C3.5692 4.09152 4.0625 3.59821 4.0625 2.98884C4.0625 2.37946 3.5692 1.85714 2.95982 1.85714C2.32143 1.85714 1.82813 2.37946 1.82813 2.98884C1.82813 3.59821 2.32143 4.09152 2.95982 4.09152ZM11.1429 11.1429V7.74777C11.1429 6.09375 10.7656 4.78795 8.82143 4.78795C7.89286 4.78795 7.25446 5.31027 6.9933 5.80357H6.96429V4.96205H5.13616V11.1429H7.05134V8.09598C7.05134 7.28348 7.19643 6.5 8.21205 6.5C9.19866 6.5 9.19866 7.42857 9.19866 8.125V11.1429H11.1429Z" fill="white"/>
</svg>
