<svg width="13" height="13" viewBox="0 0 13 13" fill="none" xmlns="http://www.w3.org/2000/svg">
<path d="M6.51448 3.1559C8.33853 3.1559 9.8441 4.66147 9.8441 6.48552C9.8441 8.33853 8.33853 9.81514 6.51448 9.81514C4.66147 9.81514 3.18486 8.33853 3.18486 6.48552C3.18486 4.66147 4.66147 3.1559 6.51448 3.1559ZM6.51448 8.65702C7.70156 8.65702 8.65702 7.70156 8.65702 6.48552C8.65702 5.29844 7.70156 4.34298 6.51448 4.34298C5.29844 4.34298 4.34298 5.29844 4.34298 6.48552C4.34298 7.70156 5.32739 8.65702 6.51448 8.65702ZM10.7416 3.04009C10.7416 3.47439 10.3942 3.82183 9.95991 3.82183C9.52561 3.82183 9.17817 3.47439 9.17817 3.04009C9.17817 2.60579 9.52561 2.25835 9.95991 2.25835C10.3942 2.25835 10.7416 2.60579 10.7416 3.04009ZM12.9421 3.82183C13 4.8931 13 8.1069 12.9421 9.17817C12.8842 10.2205 12.6526 11.118 11.8998 11.8998C11.147 12.6526 10.2205 12.8842 9.17817 12.9421C8.1069 13 4.8931 13 3.82183 12.9421C2.77951 12.8842 1.88196 12.6526 1.10022 11.8998C0.347439 11.118 0.115813 10.2205 0.0579065 9.17817C0 8.1069 0 4.8931 0.0579065 3.82183C0.115813 2.77951 0.347439 1.85301 1.10022 1.10022C1.88196 0.347439 2.77951 0.115813 3.82183 0.0579065C4.8931 0 8.1069 0 9.17817 0.0579065C10.2205 0.115813 11.147 0.347439 11.8998 1.10022C12.6526 1.85301 12.8842 2.77951 12.9421 3.82183ZM11.5523 10.3073C11.8998 9.46771 11.8129 7.44098 11.8129 6.48552C11.8129 5.55902 11.8998 3.53229 11.5523 2.6637C11.3207 2.11359 10.8864 1.65033 10.3363 1.44766C9.46771 1.10022 7.44098 1.18708 6.51448 1.18708C5.55902 1.18708 3.53229 1.10022 2.69265 1.44766C2.11359 1.67929 1.67929 2.11359 1.44766 2.6637C1.10022 3.53229 1.18708 5.55902 1.18708 6.48552C1.18708 7.44098 1.10022 9.46771 1.44766 10.3073C1.67929 10.8864 2.11359 11.3207 2.69265 11.5523C3.53229 11.8998 5.55902 11.8129 6.51448 11.8129C7.44098 11.8129 9.46771 11.8998 10.3363 11.5523C10.8864 11.3207 11.3497 10.8864 11.5523 10.3073Z" fill="white"/>
</svg>
